# xmcd
# Track frame offsets:
# 150
# 15664
# 29209
# 45508
# 57151
# 70364
# 80448
# 91846
# 106104
# 121870
# 135669
# 150058
# 164052
# 173179
# 184535
# 194442
# 208657
#
# Disc length: 2934 seconds
# Revision: 14
# Processed by: cddbd v1.5.2PL0 Copyright (c) Steve Scherf et al.
# Submitted via: VisiTrax 2.11.2.271 - For more info visit www.synapsa.com
#
DISCID=dd0b7411
DTITLE=Slim Dusty - A Piece Of Australia
DYEAR=2000
DGENRE=Australian Country
TTITLE0=Waltzing Matilda
TTITLE1=Pub With No Beer
TTITLE2=He's A Good Bloke When He's Sober
TTITLE3=Duncan
TTITLE4=Wobbly Boot
TTITLE5=Medley: Boomerang, Tie Me Kangaroo Down, Where The Dog Sit's On The Tu
TTITLE5=ckerbox
TTITLE6=Ringer From The Top End
TTITLE7=G'day G'day
TTITLE8=Indian Pacific
TTITLE9=Abalinga Mail
TTITLE10=Medley: Click Go The Shears, The Overlander Trail, Waltzing Matilda
TTITLE11=G'day Blue
TTITLE12=Christmas On The Station
TTITLE13=Medley: Along The Road To Gundagai, I'm Going Back Again To Yarrawonga
TTITLE13=, The Man From The Never Never, That Old Bush Shanty Of Mine
TTITLE14=Cunnamulla Fella
TTITLE15=A Word To Texas Jack
TTITLE16=Australia's On The Wallaby
EXTD=YEAR: 2000
EXTT0=
EXTT1=
EXTT2=
EXTT3=
EXTT4=
EXTT5=
EXTT6=
EXTT7=
EXTT8=
EXTT9=
EXTT10=
EXTT11=
EXTT12=
EXTT13=
EXTT14=
EXTT15=
EXTT16=
PLAYORDER=
